<svg width="100%" height="100%" xmlns="http://www.w3.org/2000/svg" version="1.1"
     preserveAspectRatio="xMidYMid meet"
     viewBox="0 0 272.703125 147" overflow="visible">
    <defs id="SvgjsDefs1721"></defs>
    <g id="SvgjsG1722" transform="scale(1.383920165693843)" opacity="1">
        <g id="SvgjsG1723" class="text" transform="translate(100.33984375, 62.4609375) scale(1)" light-content="false"
           fill="#000000">
            <path d="M-40.75 -40.9L-40.75 -42.25C-40.75 -42.64 -40.81 -43.03 -40.93 -43.42C-41.04 -43.81 -41.1 -44.2 -41.1 -44.59C-41.1 -45.02 -40.99 -45.41 -40.75 -45.76C-41.14 -46.46 -41.57 -47.03 -42.04 -47.46C-41.96 -47.85 -41.99 -48.14 -42.13 -48.34C-42.27 -48.54 -42.31 -48.81 -42.28 -49.16C-42.71 -49.55 -43.08 -49.98 -43.39 -50.45C-43.7 -50.92 -44.02 -51.4 -44.36 -51.88C-44.69 -52.37 -45.04 -52.83 -45.41 -53.26C-45.78 -53.69 -46.2 -54.08 -46.67 -54.43C-46.59 -54.75 -46.67 -55.02 -46.9 -55.25C-47.57 -55.53 -48.25 -55.8 -48.96 -56.07C-49.66 -56.35 -50.09 -56.91 -50.24 -57.77C-50.67 -58.09 -51.18 -58.27 -51.77 -58.33C-52.35 -58.39 -52.82 -58.55 -53.17 -58.83C-53.37 -58.95 -53.48 -59.09 -53.5 -59.27C-53.52 -59.44 -53.62 -59.57 -53.82 -59.65C-54.01 -59.77 -54.32 -59.84 -54.73 -59.88C-55.14 -59.92 -55.46 -59.98 -55.69 -60.06C-56.01 -60.18 -56.26 -60.32 -56.46 -60.5C-56.65 -60.67 -56.9 -60.8 -57.22 -60.88C-57.57 -61.11 -57.96 -61.25 -58.39 -61.29C-58.82 -61.33 -59.25 -61.36 -59.68 -61.38C-60.11 -61.4 -60.52 -61.46 -60.91 -61.55C-61.3 -61.65 -61.67 -61.86 -62.02 -62.17C-62.02 -62.36 -62.1 -62.44 -62.26 -62.4C-62.61 -62.09 -63.02 -61.9 -63.49 -61.85C-63.96 -61.79 -64.42 -61.76 -64.89 -61.76C-65.52 -61.76 -66.13 -61.8 -66.74 -61.87C-67.34 -61.95 -67.94 -62.05 -68.53 -62.17C-68.99 -62.05 -69.42 -61.87 -69.81 -61.64C-70.21 -61.41 -70.62 -61.15 -71.04 -60.88C-71.12 -61.15 -71.26 -61.29 -71.46 -61.29C-71.65 -61.29 -71.82 -61.24 -71.95 -61.14C-72.09 -61.04 -72.24 -61 -72.39 -61C-72.55 -61 -72.65 -61.07 -72.69 -61.23C-72.72 -61.39 -72.74 -61.5 -72.74 -61.58C-72.94 -61.58 -73.08 -61.52 -73.15 -61.41C-73.23 -61.29 -73.31 -61.16 -73.39 -61.03C-73.47 -60.89 -73.55 -60.76 -73.65 -60.64C-73.75 -60.53 -73.92 -60.47 -74.15 -60.47C-76.03 -60.47 -77.68 -60.21 -79.1 -59.68C-80.53 -59.15 -82.04 -58.52 -83.64 -57.77C-83.84 -57.81 -84.06 -57.84 -84.32 -57.86C-84.57 -57.88 -84.79 -57.89 -84.99 -57.89C-85.81 -57.89 -86.52 -57.73 -87.13 -57.42C-87.73 -57.11 -88.33 -56.66 -88.92 -56.07C-90.28 -55.76 -91.6 -55.32 -92.87 -54.76C-94.14 -54.19 -95.34 -53.44 -96.47 -52.5L-96.65 -52.5C-96.85 -52.5 -97.01 -52.54 -97.15 -52.62C-97.29 -52.7 -97.45 -52.73 -97.65 -52.73L-97.94 -52.73C-98.53 -51.95 -99.07 -51.28 -99.58 -50.71C-100.09 -50.15 -100.34 -49.32 -100.34 -48.22L-100.34 -47.75C-100.34 -47.6 -100.32 -47.44 -100.28 -47.29C-99.93 -46.82 -99.56 -46.36 -99.17 -45.91C-98.78 -45.46 -98.31 -45.14 -97.76 -44.94C-97.14 -45.18 -96.47 -45.42 -95.77 -45.67C-95.07 -45.93 -94.38 -46.21 -93.72 -46.52C-93.06 -46.84 -92.42 -47.19 -91.82 -47.58C-91.21 -47.97 -90.67 -48.44 -90.21 -48.98C-89.93 -48.95 -89.7 -48.97 -89.5 -49.07C-89.31 -49.17 -89.13 -49.29 -88.97 -49.42C-88.82 -49.56 -88.66 -49.69 -88.51 -49.8C-88.35 -49.92 -88.13 -49.98 -87.86 -49.98L-87.69 -49.98C-87.61 -47.68 -87.42 -45.39 -87.13 -43.12C-86.84 -40.86 -86.69 -38.55 -86.69 -36.21C-86.69 -35.55 -86.71 -34.87 -86.75 -34.19C-86.79 -33.51 -86.88 -32.83 -87.04 -32.17C-86.85 -31.5 -86.75 -30.9 -86.75 -30.35C-86.75 -30.16 -86.77 -29.93 -86.81 -29.68C-86.85 -29.42 -87 -29.26 -87.28 -29.18C-87.08 -28.95 -86.92 -28.7 -86.81 -28.45C-86.69 -28.19 -86.63 -27.91 -86.63 -27.6C-86.63 -27.25 -86.68 -26.88 -86.78 -26.51C-86.88 -26.14 -86.96 -25.76 -87.04 -25.37C-87.16 -24.47 -87.22 -23.52 -87.22 -22.5L-87.22 -19.39C-87.22 -18.38 -87.26 -17.36 -87.33 -16.35C-87.41 -15.33 -87.59 -14.41 -87.86 -13.59L-87.63 -13.01C-87.55 -12.81 -87.49 -12.6 -87.45 -12.36C-87.72 -11.58 -87.9 -10.78 -87.98 -9.96C-88.06 -9.14 -88.1 -8.32 -88.1 -7.5C-88.1 -7.19 -88.08 -6.85 -88.04 -6.47C-88 -6.1 -88.02 -5.76 -88.1 -5.45C-88.1 -5.21 -88.15 -5 -88.27 -4.8C-88.39 -4.61 -88.47 -4.41 -88.51 -4.22C-88.19 -3.95 -88.04 -3.63 -88.04 -3.28C-88.04 -2.97 -88.08 -2.67 -88.15 -2.37C-88.23 -2.08 -88.27 -1.78 -88.27 -1.46C-88.27 -0.53 -88.11 0.39 -87.77 1.29C-87.44 2.19 -87.28 3.11 -87.28 4.04C-87.28 4.51 -87.34 4.96 -87.48 5.39C-87.62 5.82 -87.69 6.29 -87.69 6.8C-87.69 7.46 -87.48 8.08 -87.07 8.64C-86.66 9.21 -86.3 9.77 -85.99 10.31C-85.83 10.27 -85.62 10.25 -85.34 10.25C-84.79 10.25 -84.37 10.38 -84.08 10.63C-83.79 10.89 -83.43 11.05 -83 11.13C-82.8 11.17 -82.59 11.18 -82.35 11.16C-82.12 11.14 -81.88 11.13 -81.65 11.13C-81.1 11.17 -80.57 11.23 -80.04 11.31C-79.51 11.39 -78.96 11.48 -78.37 11.6C-77.9 11.41 -77.52 11.12 -77.23 10.75C-76.93 10.38 -76.65 10 -76.38 9.61C-76.1 9.22 -75.82 8.84 -75.53 8.47C-75.23 8.1 -74.87 7.79 -74.44 7.56C-74.52 7.29 -74.48 7.07 -74.33 6.91C-74.17 6.76 -74.05 6.56 -73.97 6.33C-70.85 4.41 -67.97 2.25 -65.33 -0.18C-62.7 -2.6 -60.32 -5.33 -58.21 -8.38L-57.63 -8.38C-57.2 -9.24 -56.7 -10.04 -56.13 -10.78C-55.57 -11.52 -54.98 -12.26 -54.37 -12.98C-53.77 -13.7 -53.19 -14.44 -52.65 -15.21C-52.1 -15.97 -51.65 -16.78 -51.3 -17.64C-51.06 -17.64 -50.9 -17.71 -50.8 -17.84C-50.7 -17.98 -50.62 -18.13 -50.57 -18.31C-50.51 -18.49 -50.43 -18.63 -50.33 -18.75C-50.23 -18.87 -50.07 -18.93 -49.83 -18.93C-48.9 -20.8 -47.9 -22.58 -46.85 -24.26C-45.79 -25.94 -44.8 -27.64 -43.89 -29.36C-42.97 -31.07 -42.22 -32.87 -41.63 -34.75C-41.04 -36.62 -40.75 -38.67 -40.75 -40.9ZM-46.2 -42.19L-46.2 -41.19C-46.2 -40.84 -46.27 -40.61 -46.41 -40.49C-46.54 -40.37 -46.71 -40.18 -46.9 -39.9C-46.82 -39.04 -46.86 -38.26 -47.02 -37.56C-47.18 -36.86 -47.37 -36.18 -47.61 -35.54C-47.84 -34.89 -48.08 -34.23 -48.31 -33.54C-48.54 -32.86 -48.7 -32.13 -48.78 -31.35C-49.68 -30.1 -50.5 -28.84 -51.24 -27.57C-51.98 -26.3 -52.78 -25.04 -53.64 -23.79C-53.96 -23.36 -54.26 -22.96 -54.55 -22.59C-54.84 -22.22 -55.15 -21.86 -55.46 -21.5C-55.58 -21.35 -55.72 -21.19 -55.9 -21.04C-56.07 -20.88 -56.22 -20.72 -56.34 -20.57C-56.53 -20.37 -56.67 -20.15 -56.75 -19.89C-56.83 -19.64 -56.94 -19.41 -57.1 -19.22C-57.41 -18.63 -57.74 -18.08 -58.1 -17.55C-58.45 -17.02 -58.8 -16.48 -59.15 -15.94C-60.4 -14.18 -61.76 -12.52 -63.22 -10.96C-64.69 -9.39 -66.16 -7.85 -67.65 -6.33L-70.22 -3.57C-70.42 -3.38 -70.59 -3.19 -70.72 -3.02C-70.86 -2.84 -71.03 -2.68 -71.22 -2.52C-71.42 -2.36 -71.79 -2.12 -72.33 -1.79C-72.88 -1.46 -73.29 -1.19 -73.56 -1C-74.66 -0.21 -75.74 0.56 -76.82 1.32C-77.89 2.08 -79.05 2.7 -80.3 3.16C-80.85 2.97 -81.26 2.59 -81.53 2.02C-81.81 1.46 -81.94 0.9 -81.94 0.35C-81.94 0 -81.87 -0.31 -81.71 -0.59C-81.87 -1.87 -81.98 -3.15 -82.06 -4.42C-82.14 -5.69 -82.18 -6.97 -82.18 -8.26C-82.18 -9.63 -82.12 -11.02 -82 -12.42C-81.88 -13.83 -81.73 -15.21 -81.53 -16.58C-81.53 -16.74 -81.52 -16.88 -81.5 -17.02C-81.48 -17.16 -81.47 -17.3 -81.47 -17.46C-81.47 -17.85 -81.49 -18.23 -81.53 -18.6C-81.57 -18.97 -81.59 -19.34 -81.59 -19.69C-81.59 -20.23 -81.49 -20.74 -81.3 -21.21C-81.1 -21.68 -80.97 -22.17 -80.89 -22.68C-80.85 -23.07 -80.82 -23.46 -80.8 -23.85C-80.78 -24.24 -80.77 -24.61 -80.77 -24.96C-80.77 -26.33 -80.84 -27.68 -80.98 -29C-81.11 -30.33 -81.18 -31.68 -81.18 -33.05C-81.18 -33.63 -81.16 -34.22 -81.12 -34.8C-81.08 -35.39 -81.01 -35.98 -80.89 -36.56C-81.12 -37.03 -81.26 -37.53 -81.3 -38.06C-81.34 -38.58 -81.36 -39.12 -81.36 -39.67C-81.36 -40.21 -81.37 -40.76 -81.39 -41.31C-81.41 -41.86 -81.51 -42.36 -81.71 -42.83C-81.59 -43.18 -81.51 -43.54 -81.47 -43.92C-81.44 -44.29 -81.42 -44.65 -81.42 -45C-81.42 -46.02 -81.52 -47.02 -81.74 -48.02C-81.95 -49.01 -82.06 -50.02 -82.06 -51.04C-82.06 -51.23 -82.05 -51.41 -82.03 -51.56C-82.01 -51.72 -82 -51.89 -82 -52.09C-81.77 -52.05 -81.61 -52.07 -81.53 -52.15C-81.46 -52.22 -81.41 -52.33 -81.39 -52.47C-81.37 -52.61 -81.35 -52.73 -81.33 -52.85C-81.31 -52.97 -81.24 -53.07 -81.12 -53.14C-80.93 -53.3 -80.65 -53.38 -80.3 -53.38C-80.11 -53.38 -79.9 -53.36 -79.69 -53.32C-79.47 -53.28 -79.25 -53.22 -79.01 -53.14C-78.31 -53.65 -77.51 -54.03 -76.61 -54.29C-75.71 -54.54 -74.79 -54.76 -73.86 -54.93C-72.92 -55.11 -71.99 -55.31 -71.07 -55.55C-70.16 -55.78 -69.31 -56.11 -68.53 -56.54C-68.17 -56.31 -67.82 -56.19 -67.47 -56.19C-67.16 -56.19 -66.83 -56.25 -66.47 -56.37C-66.12 -56.48 -65.79 -56.54 -65.48 -56.54C-65.28 -56.54 -65.08 -56.55 -64.86 -56.57C-64.65 -56.59 -64.4 -56.6 -64.13 -56.6C-62.65 -56.6 -61.19 -56.38 -59.77 -55.93C-58.34 -55.48 -56.92 -55.04 -55.52 -54.61C-54.97 -53.91 -54.29 -53.36 -53.47 -52.97C-52.65 -52.58 -51.85 -52.23 -51.06 -51.91C-50.87 -50.94 -50.4 -50.37 -49.66 -50.21C-49.31 -49.94 -49.06 -49.62 -48.93 -49.25C-48.79 -48.88 -48.47 -48.69 -47.96 -48.69C-47.65 -47.64 -47.28 -46.57 -46.85 -45.5C-46.42 -44.42 -46.2 -43.32 -46.2 -42.19Z M-9.17 6.62C-9.52 5.84 -9.98 5.14 -10.55 4.51C-11.11 3.89 -11.57 3.18 -11.92 2.4C-12.04 2.36 -12.18 2.34 -12.33 2.34L-12.74 2.34C-12.94 2.34 -13.15 2.37 -13.39 2.43C-13.62 2.49 -13.84 2.54 -14.03 2.58C-14.23 2.5 -14.35 2.37 -14.38 2.2C-14.42 2.02 -14.6 1.95 -14.91 1.99C-15.15 2.19 -15.43 2.33 -15.76 2.43C-16.09 2.53 -16.44 2.62 -16.79 2.7C-17.14 2.77 -17.5 2.84 -17.87 2.9C-18.24 2.96 -18.56 3.07 -18.84 3.22C-19.15 3.14 -19.38 2.99 -19.54 2.75C-19.7 2.52 -19.99 2.4 -20.42 2.4C-20.58 2.4 -20.68 2.44 -20.74 2.52C-20.8 2.6 -20.84 2.69 -20.86 2.78C-20.88 2.88 -20.91 2.98 -20.95 3.08C-20.99 3.17 -21.06 3.22 -21.18 3.22L-23.88 3.46C-24.78 3.54 -25.67 3.59 -26.57 3.63C-29.31 3.83 -32.05 3.98 -34.8 4.1C-37.56 4.22 -40.3 4.43 -43.04 4.75C-43.35 4.47 -43.6 4.26 -43.8 4.1C-43.99 3.95 -44.31 3.87 -44.74 3.87C-45.63 3.87 -46.6 4.03 -47.64 4.37C-48.67 4.7 -49.46 5.23 -50.01 5.98C-50.01 6.09 -50.02 6.23 -50.04 6.39C-50.06 6.54 -50.07 6.68 -50.07 6.8C-50.07 7.54 -49.87 8.2 -49.48 8.79C-49.09 9.38 -48.9 10.04 -48.9 10.78C-48.58 10.86 -48.34 11.04 -48.16 11.31C-47.99 11.58 -47.69 11.72 -47.26 11.72C-47.02 11.72 -46.85 11.67 -46.73 11.57C-46.61 11.47 -46.5 11.37 -46.41 11.25C-46.31 11.13 -46.2 11.03 -46.08 10.93C-45.97 10.83 -45.79 10.78 -45.56 10.78C-45.36 10.78 -45.13 10.82 -44.85 10.9C-44.58 10.98 -44.31 11.02 -44.03 11.02C-43.53 11.02 -43.02 10.96 -42.51 10.84C-42 10.72 -41.47 10.66 -40.93 10.66C-40.26 10.66 -39.64 10.78 -39.05 11.02C-39.01 10.9 -39 10.74 -39.02 10.55C-39.04 10.35 -38.97 10.23 -38.82 10.2C-38.62 10.39 -38.33 10.49 -37.94 10.49C-37.71 10.49 -37.46 10.48 -37.21 10.46C-36.95 10.44 -36.71 10.43 -36.47 10.43C-35.97 10.43 -35.63 10.62 -35.48 11.02C-34.97 10.78 -34.47 10.63 -33.98 10.58C-33.5 10.52 -32.98 10.49 -32.43 10.49C-31.81 10.49 -31.22 10.48 -30.67 10.46C-30.13 10.44 -29.54 10.35 -28.92 10.2C-28.56 10.23 -28.2 10.27 -27.83 10.31C-27.46 10.35 -27.06 10.37 -26.63 10.37C-26.32 10.37 -25.97 10.32 -25.58 10.22C-25.19 10.13 -24.89 9.9 -24.7 9.55C-24.42 9.75 -24.18 9.92 -23.96 10.08C-23.75 10.23 -23.45 10.33 -23.06 10.37C-22.82 10.25 -22.55 10.2 -22.24 10.2C-21.85 10.2 -21.47 10.25 -21.12 10.37C-20.77 10.49 -20.4 10.55 -20.01 10.55C-19.74 10.55 -19.49 10.51 -19.28 10.43C-19.06 10.35 -18.86 10.27 -18.66 10.2L-18.66 10.78C-18.12 10.47 -17.53 10.23 -16.9 10.08C-16.28 9.92 -15.64 9.79 -15 9.67C-14.36 9.55 -13.72 9.41 -13.1 9.26C-12.47 9.1 -11.87 8.85 -11.28 8.5C-11.36 8.18 -11.34 7.98 -11.22 7.88C-11.1 7.78 -11.04 7.64 -11.04 7.44C-11.04 7.36 -11.06 7.3 -11.1 7.27C-10.79 7.19 -10.49 7.07 -10.2 6.91C-9.9 6.76 -9.56 6.66 -9.17 6.62Z M38.94 -2.17C38.94 -2.95 38.81 -3.68 38.55 -4.37C38.3 -5.05 38.13 -5.76 38.06 -6.5C37.43 -7.29 36.71 -7.96 35.89 -8.53C35.07 -9.09 34.21 -9.62 33.31 -10.11C32.41 -10.6 31.51 -11.07 30.62 -11.54C29.72 -12.01 28.9 -12.56 28.15 -13.18C26.28 -13.61 24.5 -14.23 22.82 -15.03C21.14 -15.83 19.42 -16.56 17.67 -17.23C17.63 -17.07 17.49 -16.99 17.26 -16.99C17.06 -16.99 16.88 -17.02 16.73 -17.08C16.57 -17.14 16.4 -17.19 16.2 -17.23C15.81 -17.66 15.32 -18 14.74 -18.25C14.15 -18.51 13.54 -18.73 12.92 -18.93L11.04 -19.51C10.42 -19.71 9.87 -19.98 9.4 -20.33C8.97 -20.37 8.56 -20.46 8.17 -20.6C7.78 -20.73 7.35 -20.78 6.88 -20.74C5.6 -21.52 4.3 -22.32 2.99 -23.14C1.68 -23.96 0.42 -24.84 -0.79 -25.78C-2 -26.72 -3.13 -27.74 -4.19 -28.86C-5.24 -29.97 -6.16 -31.21 -6.94 -32.58C-6.98 -33.12 -7.07 -33.68 -7.21 -34.25C-7.34 -34.81 -7.41 -35.37 -7.41 -35.92C-7.41 -36.04 -7.4 -36.17 -7.38 -36.33C-7.36 -36.48 -7.35 -36.64 -7.35 -36.8C-7.04 -37.03 -6.81 -37.31 -6.65 -37.65C-6.49 -37.98 -6.36 -38.32 -6.24 -38.67C-6.12 -39.02 -6.02 -39.38 -5.92 -39.76C-5.82 -40.13 -5.67 -40.45 -5.48 -40.72C-5.24 -41.03 -4.96 -41.26 -4.63 -41.4C-4.3 -41.53 -4.01 -41.74 -3.78 -42.01C-3.51 -42.32 -3.34 -42.64 -3.28 -42.95C-3.22 -43.26 -2.96 -43.5 -2.49 -43.65C-1.75 -43.93 -1.14 -44.24 -0.67 -44.59C-0.21 -44.94 0.3 -45.41 0.85 -46C1.59 -46.27 2.26 -46.6 2.84 -46.99L4.66 -48.22C5.28 -48.65 5.93 -49.05 6.59 -49.42C7.26 -49.79 8 -50.06 8.82 -50.21C9.05 -50.53 9.37 -50.74 9.76 -50.86C10.15 -50.98 10.46 -51.19 10.69 -51.5C11.32 -51.54 11.93 -51.65 12.54 -51.83C13.14 -52 13.76 -52.18 14.38 -52.35C15.01 -52.53 15.62 -52.69 16.23 -52.82C16.84 -52.96 17.45 -53.03 18.08 -53.03L18.6 -53.03C18.76 -53.03 18.94 -52.99 19.13 -52.91C19.33 -52.48 19.66 -52.16 20.13 -51.94C20.6 -51.73 21.08 -51.62 21.59 -51.62C22.06 -51.62 22.53 -51.71 23 -51.88C23.47 -52.06 23.86 -52.34 24.17 -52.73C24.99 -52.66 25.83 -52.65 26.69 -52.71C27.55 -52.76 28.37 -52.79 29.15 -52.79C29.74 -52.79 30.33 -52.75 30.94 -52.68C31.54 -52.6 32.1 -52.4 32.61 -52.09C32.61 -52.68 32.92 -52.97 33.54 -52.97L33.84 -52.91L33.84 -53.61C33.84 -53.85 33.82 -54.1 33.78 -54.37C33.74 -54.65 33.62 -54.86 33.43 -55.02C33.9 -55.21 34.33 -55.45 34.72 -55.72C35.11 -56 35.38 -56.41 35.54 -56.95C35.38 -57.15 35.3 -57.4 35.3 -57.71L35.3 -57.95C34.91 -58.11 34.55 -58.28 34.22 -58.48C33.89 -58.67 33.68 -59 33.6 -59.47C32.47 -59.67 31.33 -59.88 30.18 -60.12C29.02 -60.35 27.86 -60.47 26.69 -60.47C26.42 -60.47 26.14 -60.43 25.87 -60.35C25.6 -60.27 25.32 -60.23 25.05 -60.23C24.85 -60.23 24.74 -60.31 24.7 -60.47C24.66 -60.62 24.52 -60.7 24.29 -60.7L24.17 -60.7C24.05 -60.51 23.86 -60.39 23.58 -60.35C23.31 -60.31 23.08 -60.29 22.88 -60.29C22.57 -60.29 22.26 -60.31 21.94 -60.35C21.63 -60.39 21.32 -60.37 21.01 -60.29C20.22 -60.18 19.49 -59.97 18.81 -59.68C18.13 -59.38 17.39 -59.24 16.61 -59.24L16.2 -59.24C15.58 -58.97 14.95 -58.72 14.33 -58.51C13.7 -58.29 13.06 -58.18 12.39 -58.18L11.98 -58.18C11.9 -57.95 11.75 -57.77 11.51 -57.66C11.28 -57.54 11.04 -57.45 10.78 -57.39C10.53 -57.33 10.27 -57.27 10.02 -57.19C9.77 -57.11 9.56 -56.95 9.4 -56.72C8.97 -56.8 8.65 -56.75 8.44 -56.57C8.22 -56.4 7.92 -56.31 7.53 -56.31L7.18 -56.31C6.94 -55.88 6.65 -55.59 6.3 -55.43C4.54 -54.57 2.82 -53.74 1.14 -52.94C-0.54 -52.14 -2.12 -51.09 -3.6 -49.8C-3.92 -49.77 -4.17 -49.67 -4.37 -49.51C-4.56 -49.36 -4.75 -49.19 -4.92 -49.01C-5.1 -48.84 -5.28 -48.67 -5.48 -48.52C-5.67 -48.36 -5.95 -48.28 -6.3 -48.28C-6.34 -47.97 -6.45 -47.7 -6.62 -47.46C-6.8 -47.23 -6.9 -46.95 -6.94 -46.64C-9.17 -45.63 -10.8 -44.11 -11.84 -42.1C-12.87 -40.09 -13.39 -37.91 -13.39 -35.57C-13.39 -33.89 -13.12 -32.17 -12.57 -30.41C-12.33 -30.21 -12.12 -29.97 -11.92 -29.68C-11.73 -29.38 -11.63 -29.04 -11.63 -28.65C-11.63 -28.54 -11.67 -28.36 -11.75 -28.12C-10.97 -27.46 -10.24 -26.74 -9.58 -25.96C-8.92 -25.18 -8.39 -24.28 -8 -23.26C-7.41 -23.03 -6.87 -22.76 -6.36 -22.47C-5.85 -22.18 -5.56 -21.68 -5.48 -20.98C-5.17 -21.05 -4.95 -21.09 -4.83 -21.09C-4.33 -21.09 -3.91 -20.91 -3.57 -20.54C-3.24 -20.17 -2.88 -19.82 -2.49 -19.51C-1.87 -19.36 -1.3 -19.14 -0.79 -18.87C-0.28 -18.59 0.21 -18.31 0.7 -18.02C1.19 -17.72 1.72 -17.46 2.29 -17.23C2.85 -16.99 3.49 -16.86 4.19 -16.82C4.23 -16.5 4.37 -16.3 4.6 -16.2C4.83 -16.1 4.99 -15.94 5.07 -15.7L5.3 -15.7C5.5 -15.7 5.63 -15.76 5.71 -15.88C5.79 -16 5.91 -16.07 6.06 -16.11C6.22 -15.84 6.45 -15.63 6.74 -15.5C7.03 -15.36 7.34 -15.23 7.68 -15.12C8.01 -15 8.31 -14.86 8.58 -14.71C8.86 -14.55 9.07 -14.34 9.23 -14.06C9.85 -14.06 10.46 -13.97 11.04 -13.8C11.63 -13.62 12.2 -13.43 12.74 -13.21C13.29 -13 13.85 -12.78 14.41 -12.57C14.98 -12.35 15.58 -12.23 16.2 -12.19C16.98 -11.41 17.93 -10.87 19.04 -10.58C20.16 -10.28 21.24 -10.04 22.29 -9.84C22.45 -9.41 22.71 -9.11 23.06 -8.94C23.41 -8.76 23.78 -8.59 24.17 -8.44C24.56 -8.28 24.93 -8.12 25.28 -7.94C25.63 -7.76 25.89 -7.5 26.04 -7.15C27.37 -6.91 28.46 -6.43 29.3 -5.68C30.14 -4.94 30.95 -4.08 31.73 -3.11C31.73 -3.03 31.74 -2.94 31.76 -2.84C31.78 -2.74 31.79 -2.66 31.79 -2.58C31.79 -2.07 31.66 -1.69 31.41 -1.44C31.15 -1.18 30.99 -0.84 30.91 -0.41C29.07 0.64 27.33 1.56 25.69 2.34C24.05 3.12 22.16 3.61 20.01 3.81C19.58 4.12 19.06 4.38 18.46 4.57C17.85 4.77 17.23 4.93 16.58 5.07C15.94 5.21 15.3 5.3 14.68 5.36C14.05 5.42 13.49 5.45 12.98 5.45C12.47 5.45 11.97 5.43 11.48 5.39C11 5.35 10.54 5.23 10.11 5.04C10.11 4.77 10.09 4.4 10.05 3.96C10.01 3.51 9.92 3.07 9.79 2.64C9.65 2.21 9.45 1.84 9.2 1.52C8.95 1.21 8.62 1.05 8.23 1.05C7.88 1.05 7.52 1.13 7.15 1.29C6.78 1.45 6.42 1.52 6.06 1.52L5.89 1.52C5.38 2.03 4.97 2.61 4.66 3.25C4.35 3.9 4.19 4.59 4.19 5.33C4.19 6.31 4.42 7.24 4.89 8.12C5.36 8.99 5.97 9.73 6.71 10.31C7.88 10.43 9.05 10.57 10.22 10.72C11.4 10.88 12.57 10.96 13.74 10.96C14.4 10.96 15.03 10.92 15.62 10.84C16.2 10.76 16.83 10.64 17.49 10.49L17.9 10.49C18.41 10.49 18.88 10.57 19.31 10.72C19.42 10.57 19.6 10.45 19.83 10.37C20.07 10.29 20.3 10.23 20.54 10.2C20.77 10.16 21.01 10.11 21.24 10.05C21.47 9.99 21.67 9.88 21.83 9.73L22.24 9.73C23.53 9.73 24.77 9.45 25.96 8.91C27.15 8.36 28.31 7.83 29.44 7.32C29.79 7.17 30.15 7.04 30.5 6.94C30.85 6.85 31.18 6.72 31.49 6.56C31.92 6.37 32.42 6.01 32.99 5.48C33.55 4.95 34.13 4.53 34.72 4.22C34.79 3.63 34.99 3.15 35.3 2.78C35.62 2.41 35.94 2.06 36.27 1.73C36.6 1.4 36.92 1.04 37.24 0.64C37.55 0.25 37.74 -0.23 37.82 -0.82C38.1 -0.78 38.29 -0.83 38.41 -0.97C38.53 -1.1 38.68 -1.21 38.88 -1.29C38.92 -1.48 38.94 -1.78 38.94 -2.17Z M96.71 -20.68C96.71 -21.11 96.69 -21.54 96.65 -21.97C96.61 -22.4 96.55 -22.83 96.47 -23.26C96.04 -23.85 95.42 -24.14 94.6 -24.14C94.01 -24.14 93.42 -24.03 92.81 -23.82C92.21 -23.6 91.61 -23.42 91.03 -23.26C90.44 -23.14 89.85 -23.08 89.27 -23.06C88.68 -23.04 88.1 -23.03 87.51 -23.03C86.61 -23.03 85.65 -23.04 84.64 -23.06C83.62 -23.08 82.67 -22.95 81.77 -22.68C81.85 -22.99 81.78 -23.15 81.56 -23.17C81.35 -23.19 81.2 -23.3 81.12 -23.5C81.36 -24.2 81.49 -24.92 81.53 -25.66L81.65 -27.95C81.69 -28.73 81.75 -29.48 81.83 -30.21C81.9 -30.93 82.08 -31.64 82.35 -32.34C82.28 -33.01 82.33 -33.68 82.53 -34.37C82.72 -35.05 82.82 -35.74 82.82 -36.45C82.82 -36.8 82.76 -37.19 82.65 -37.62C82.96 -38.87 83.24 -40.12 83.5 -41.37C83.75 -42.62 83.94 -43.89 84.05 -45.18C84.09 -45.76 84.12 -46.42 84.14 -47.14C84.16 -47.86 84.2 -48.57 84.26 -49.28C84.32 -49.98 84.42 -50.66 84.58 -51.33C84.74 -51.99 84.99 -52.6 85.34 -53.14C85.26 -53.54 85.19 -53.92 85.11 -54.29C85.03 -54.66 84.99 -55.06 84.99 -55.49C84.99 -56.03 85.02 -56.55 85.08 -57.04C85.14 -57.53 85.17 -58.05 85.17 -58.59C85.17 -59.37 85.07 -60.21 84.87 -61.11C84.52 -61.54 84.08 -61.87 83.55 -62.11C83.03 -62.34 82.47 -62.46 81.88 -62.46C80.75 -62.46 79.94 -62.12 79.45 -61.44C78.96 -60.75 78.72 -59.9 78.72 -58.89C78.72 -58.14 78.76 -57.38 78.84 -56.6C78.91 -55.82 79.05 -55.1 79.25 -54.43C78.82 -54.16 78.6 -53.79 78.6 -53.32C78.6 -52.97 78.59 -52.67 78.57 -52.41C78.55 -52.16 78.51 -51.86 78.43 -51.5C78.39 -51.47 78.39 -51.43 78.43 -51.39C78.43 -51.07 78.49 -50.8 78.6 -50.57C78.72 -50.33 78.8 -50.08 78.84 -49.8C78.6 -49.49 78.45 -49.15 78.37 -48.78C78.29 -48.41 78.24 -48.03 78.22 -47.64C78.2 -47.25 78.17 -46.86 78.13 -46.46C78.1 -46.07 77.98 -45.7 77.78 -45.35C77.74 -45.39 77.7 -45.4 77.64 -45.38C77.58 -45.36 77.55 -45.31 77.55 -45.23C77.55 -45.12 77.66 -45.02 77.87 -44.94C78.09 -44.86 78.19 -44.73 78.19 -44.53C78.19 -44.34 78.14 -44.12 78.05 -43.89C77.95 -43.65 77.86 -43.42 77.78 -43.18C77.59 -42.56 77.43 -41.91 77.31 -41.25L76.96 -39.26C76.77 -37.97 76.61 -36.67 76.49 -35.36C76.38 -34.05 76.24 -32.75 76.08 -31.46C75.93 -30.18 75.74 -28.88 75.53 -27.57C75.31 -26.26 75.01 -24.96 74.62 -23.67C74.74 -23.36 74.79 -23.05 74.79 -22.73C74.79 -22.19 74.66 -21.66 74.38 -21.15C70.83 -20.61 67.29 -19.96 63.78 -19.22C60.26 -18.48 56.73 -17.95 53.17 -17.64C53.1 -17.87 53.06 -18.07 53.06 -18.22C53.06 -18.54 53.11 -18.83 53.2 -19.1C53.3 -19.37 53.37 -19.65 53.41 -19.92C53.49 -20.78 53.5 -21.63 53.44 -22.47C53.38 -23.31 53.43 -24.14 53.58 -24.96C53.66 -25.23 53.77 -25.48 53.91 -25.69C54.04 -25.91 54.15 -26.17 54.23 -26.48C54.42 -27.3 54.53 -28.16 54.55 -29.06C54.57 -29.96 54.6 -30.86 54.64 -31.76C54.68 -32.3 54.78 -32.86 54.93 -33.43C55.09 -33.99 55.21 -34.55 55.28 -35.1C55.36 -35.64 55.39 -36.31 55.37 -37.09C55.35 -37.87 55.46 -38.53 55.69 -39.08C55.62 -40.57 55.67 -42.03 55.87 -43.48C56.06 -44.92 56.16 -46.37 56.16 -47.81C56.16 -48.79 56.08 -49.65 55.93 -50.39C56.44 -51.21 56.69 -52.07 56.69 -52.97C56.69 -54.14 56.29 -55.14 55.49 -55.96C54.69 -56.78 53.7 -57.17 52.53 -57.13C52.18 -56.89 51.87 -56.6 51.62 -56.25C51.37 -55.9 51.04 -55.62 50.65 -55.43C50.69 -54.96 50.68 -54.49 50.63 -54.02C50.57 -53.55 50.54 -53.09 50.54 -52.62C50.54 -52.03 50.65 -51.43 50.89 -50.8C50.42 -49.43 50.19 -48.01 50.19 -46.52C50.19 -45.39 50.34 -44.37 50.65 -43.48C50.26 -42.27 49.96 -41.04 49.75 -39.81C49.53 -38.58 49.35 -37.34 49.19 -36.09L49.13 -35.98C49.13 -35.78 49.21 -35.63 49.37 -35.54C49.52 -35.44 49.6 -35.29 49.6 -35.1L49.6 -34.86C49.6 -34.16 49.57 -33.48 49.51 -32.81C49.45 -32.15 49.33 -31.45 49.13 -30.7C49.01 -30.23 48.88 -29.73 48.72 -29.18C48.56 -28.63 48.45 -28.14 48.37 -27.71C48.33 -27.44 48.31 -27.17 48.31 -26.89L48.31 -26.07C48.23 -25.18 48.11 -24.24 47.93 -23.26C47.75 -22.29 47.39 -21.39 46.85 -20.57C46.92 -19.9 46.91 -19.27 46.82 -18.66C46.72 -18.06 46.59 -17.44 46.44 -16.82C46.04 -16.74 45.65 -16.64 45.26 -16.52C44.87 -16.41 44.48 -16.35 44.09 -16.35C43.7 -16.35 43.37 -16.43 43.1 -16.58C43.06 -16.07 42.82 -15.76 42.39 -15.64C41.96 -15.53 41.57 -15.41 41.22 -15.29C41.1 -14.86 41.04 -14.45 41.04 -14.06C41.04 -13.28 41.2 -12.53 41.51 -11.81C41.83 -11.08 42.22 -10.43 42.69 -9.84C43.12 -9.73 43.55 -9.69 44 -9.73C44.45 -9.77 44.85 -9.61 45.21 -9.26C45.13 -7.62 45.03 -6.03 44.91 -4.48C44.79 -2.94 44.74 -1.37 44.74 0.23C44.74 1.09 44.76 1.93 44.79 2.75C44.83 3.57 44.89 4.41 44.97 5.27C45.24 5.66 45.48 6.09 45.67 6.56C45.87 7.03 46.05 7.51 46.23 8C46.41 8.49 46.58 8.96 46.76 9.4C46.93 9.85 47.18 10.21 47.49 10.49C47.61 10.61 47.75 10.7 47.93 10.78C48.11 10.86 48.27 10.93 48.43 10.99C48.58 11.04 48.71 11.14 48.81 11.28C48.91 11.42 48.96 11.6 48.96 11.84C49.54 11.8 50.12 11.78 50.68 11.78C51.25 11.78 51.82 11.76 52.38 11.72C52.95 11.68 53.51 11.61 54.05 11.51C54.6 11.42 55.15 11.23 55.69 10.96C55.62 10.61 55.61 10.37 55.66 10.25C55.72 10.14 55.81 10.07 55.93 10.05C56.04 10.03 56.17 10.02 56.31 10.02C56.45 10.02 56.59 9.98 56.75 9.9C56.83 9.28 57.02 8.7 57.33 8.17C57.65 7.65 57.88 7.11 58.04 6.56C57.33 6.45 56.67 6.22 56.04 5.89C55.42 5.56 54.76 5.39 54.05 5.39C53.62 5.39 53.12 5.49 52.53 5.68C51.98 5.33 51.57 4.92 51.3 4.45C51.42 4.3 51.47 4.08 51.47 3.81C51.47 3.5 51.39 3.21 51.21 2.96C51.04 2.71 50.93 2.42 50.89 2.11C50.81 1.64 50.77 1.15 50.77 0.64L50.77 -0.76C50.77 -2.36 50.85 -3.94 51.01 -5.48C51.16 -7.02 51.4 -8.55 51.71 -10.08C53 -10.39 54.29 -10.75 55.58 -11.16C56.87 -11.57 58.16 -11.95 59.47 -12.3C60.78 -12.66 62.1 -12.96 63.43 -13.21C64.76 -13.47 66.08 -13.59 67.41 -13.59C67.84 -14.02 68.34 -14.33 68.91 -14.5C69.47 -14.68 70.05 -14.77 70.63 -14.77L71.16 -14.77C71.32 -14.77 71.49 -14.75 71.69 -14.71L72.57 -15.12C72.84 -15.27 73.17 -15.35 73.56 -15.35C73.76 -15.35 73.9 -15.33 73.97 -15.29L73.74 -13.42C73.66 -12.79 73.62 -12.15 73.62 -11.48C73.62 -11.05 73.66 -10.63 73.74 -10.22C73.82 -9.81 73.97 -9.41 74.21 -9.02C73.9 -8.52 73.7 -8 73.62 -7.47C73.54 -6.94 73.51 -6.41 73.51 -5.86C73.51 -5.35 73.53 -4.83 73.56 -4.31C73.6 -3.78 73.62 -3.24 73.62 -2.7C73.62 -1.91 73.54 -1.21 73.39 -0.59C73.58 0.51 73.8 1.57 74.03 2.61C74.27 3.64 74.38 4.73 74.38 5.86C74.89 6.64 75.22 7.57 75.38 8.64C75.54 9.72 75.71 10.7 75.91 11.6C76.34 11.88 76.66 12.25 76.88 12.71C77.09 13.18 77.2 13.69 77.2 14.24C77.2 14.55 77.18 14.79 77.14 14.94C77.76 14.86 78.29 15.06 78.72 15.53C79.15 16 79.46 16.5 79.66 17.05C79.93 17.01 80.16 17.03 80.33 17.11C80.51 17.19 80.67 17.29 80.83 17.4C80.99 17.52 81.13 17.65 81.27 17.78C81.41 17.92 81.57 18.03 81.77 18.11C82.08 18.03 82.37 17.99 82.65 17.99C83.04 17.99 83.41 18.04 83.76 18.13C84.11 18.23 84.48 18.28 84.87 18.28C85.54 18.05 86.02 17.64 86.31 17.05C86.6 16.46 86.75 15.84 86.75 15.18C86.75 14.79 86.69 14.37 86.57 13.95C86.14 13.63 85.75 13.34 85.4 13.07C85.05 12.79 84.87 12.36 84.87 11.78L84.87 11.43C84.6 11.35 84.34 11.28 84.08 11.22C83.83 11.16 83.54 11.13 83.23 11.13C82.88 10.74 82.6 10.31 82.38 9.84C82.17 9.38 81.98 8.89 81.83 8.38C81.67 7.87 81.51 7.37 81.36 6.88C81.2 6.4 80.99 5.92 80.71 5.45C80.67 4.63 80.6 3.72 80.48 2.72C80.36 1.73 80.15 0.82 79.83 0C79.91 -2.7 79.96 -5.38 79.98 -8.06C80 -10.73 80.19 -13.42 80.54 -16.11C81.08 -16.58 81.76 -16.93 82.56 -17.17C83.36 -17.4 84.21 -17.59 85.11 -17.72C86.01 -17.86 86.9 -17.96 87.8 -18.02C88.7 -18.08 89.5 -18.14 90.21 -18.22C90.67 -17.91 91.05 -17.7 91.35 -17.58C91.64 -17.46 92.1 -17.4 92.72 -17.4C93.66 -17.4 94.44 -17.62 95.07 -18.05C95.69 -18.48 96.22 -19.1 96.65 -19.92C96.69 -20.04 96.71 -20.16 96.71 -20.27Z"></path>
        </g>
    </g>
</svg>