<svg width="24" height="24" viewBox="0 0 24 24" fill="none" xmlns="http://www.w3.org/2000/svg">
<path d="M8.25 3C5.3584 3 3 5.3584 3 8.25C3 9.02344 3.2373 9.74121 3.53906 10.4062C3.44238 10.9248 3.375 11.4521 3.375 12C3.375 16.7549 7.24512 20.625 12 20.625C12.5479 20.625 13.0752 20.5576 13.5938 20.4609C14.2588 20.7627 14.9766 21 15.75 21C18.6416 21 21 18.6416 21 15.75C21 14.9766 20.7627 14.2588 20.4609 13.5938C20.5576 13.0752 20.625 12.5479 20.625 12C20.625 7.24512 16.7549 3.375 12 3.375C11.4521 3.375 10.9248 3.44238 10.4062 3.53906C9.74121 3.2373 9.02344 3 8.25 3ZM8.25 4.5C8.89746 4.5 9.50098 4.6582 10.0312 4.94531C10.1895 5.03027 10.3711 5.05371 10.5469 5.01562C11.0186 4.91895 11.499 4.875 12 4.875C15.9434 4.875 19.125 8.05664 19.125 12C19.125 12.501 19.0811 12.9814 18.9844 13.4531C18.9463 13.6289 18.9697 13.8105 19.0547 13.9688C19.3418 14.499 19.5 15.1025 19.5 15.75C19.5 17.8301 17.8301 19.5 15.75 19.5C15.1025 19.5 14.499 19.3418 13.9688 19.0547C13.8105 18.9697 13.6289 18.9463 13.4531 18.9844C12.9814 19.0811 12.501 19.125 12 19.125C8.05664 19.125 4.875 15.9434 4.875 12C4.875 11.499 4.91895 11.0186 5.01562 10.5469C5.05371 10.3711 5.03027 10.1895 4.94531 10.0312C4.6582 9.50098 4.5 8.89746 4.5 8.25C4.5 6.16992 6.16992 4.5 8.25 4.5ZM11.8828 6.86719C10.0283 6.86719 8.03906 7.65234 8.03906 9.75C8.03906 10.7607 8.39648 11.8301 10.3828 12.3281L12.8672 12.9375C13.6143 13.1221 13.8047 13.5439 13.8047 13.9219C13.8047 14.5518 13.1807 15.1641 12.0469 15.1641C9.83203 15.1641 10.1162 13.4766 8.92969 13.4766C8.39648 13.4766 8.01562 13.8428 8.01562 14.3672C8.01562 15.3896 9.27246 16.7344 12.0469 16.7344C14.6865 16.7344 15.9844 15.46 15.9844 13.7578C15.9844 12.6562 15.4775 11.5078 13.4766 11.0625L11.6484 10.6406C10.9541 10.4824 10.1484 10.2861 10.1484 9.63281C10.1484 8.97656 10.7051 8.50781 11.7188 8.50781C13.7607 8.50781 13.5879 9.91406 14.6016 9.91406C15.1348 9.91406 15.5859 9.60938 15.5859 9.07031C15.5859 7.81055 13.5908 6.86719 11.8828 6.86719Z" fill="black"/>
</svg>
