<svg width="24" height="24" viewBox="0 0 24 24" fill="none" xmlns="http://www.w3.org/2000/svg">
<path d="M19.5527 2.99724C19.3007 3.00896 19.0634 3.0822 18.8525 3.16423H18.8496C18.6357 3.24919 17.6191 3.67692 16.0751 4.32438C14.5312 4.97478 12.5273 5.81853 10.538 6.65642C6.56538 8.32927 2.66011 9.97575 2.66011 9.97575L2.70698 9.95817C2.70698 9.95817 2.43745 10.0461 2.1562 10.2394C2.01265 10.3332 1.85444 10.4621 1.71675 10.6642C1.57905 10.8664 1.46772 11.1769 1.50874 11.4963C1.57612 12.0383 1.92769 12.3634 2.17964 12.5422C2.43452 12.7238 2.67769 12.8088 2.67769 12.8088H2.68354L6.34565 14.0422C6.50972 14.5695 7.46186 17.6984 7.69038 18.4191C7.82515 18.8498 7.95698 19.1193 8.12104 19.3244C8.20015 19.4299 8.2939 19.5177 8.40522 19.5881C8.44917 19.6144 8.49604 19.6349 8.54292 19.6525C8.55757 19.6613 8.57222 19.6642 8.58979 19.6672L8.55171 19.6584C8.56343 19.6613 8.57222 19.6701 8.58101 19.673C8.6103 19.6818 8.63081 19.6847 8.6689 19.6906C9.24897 19.8664 9.71479 19.506 9.71479 19.506L9.74116 19.4855L11.9033 17.5168L15.5273 20.297L15.6093 20.3322C16.3652 20.6633 17.1298 20.4787 17.5341 20.1535C17.9414 19.8254 18.0996 19.4064 18.0996 19.4064L18.1259 19.339L20.9267 4.99235C21.0058 4.63786 21.0263 4.30681 20.9384 3.98454C20.8505 3.66228 20.625 3.36052 20.3525 3.19938C20.0771 3.03532 19.8046 2.98552 19.5527 2.99724ZM19.4765 4.53532C19.4736 4.5822 19.4824 4.57634 19.4619 4.66716V4.67595L16.6875 18.8732C16.6757 18.8937 16.6552 18.9377 16.5996 18.9816C16.541 19.0285 16.4941 19.0578 16.2509 18.9611L11.8183 15.5627L9.14058 18.0031L9.70308 14.4113C9.70308 14.4113 16.6464 7.93962 16.9453 7.6613C17.2441 7.38298 17.1445 7.32438 17.1445 7.32438C17.165 6.98454 16.6933 7.22478 16.6933 7.22478L7.56147 12.882L7.55854 12.8674L3.18159 11.3937V11.3908C3.17866 11.3908 3.1728 11.3879 3.16987 11.3879C3.1728 11.3879 3.19331 11.3791 3.19331 11.3791L3.21675 11.3674L3.24019 11.3586C3.24019 11.3586 7.14839 9.71208 11.121 8.03923C13.1103 7.20134 15.1142 6.35759 16.6552 5.7072C18.1962 5.05974 19.3359 4.58513 19.4003 4.55876C19.4619 4.53532 19.4326 4.53532 19.4765 4.53532Z" fill="#fff"/>
</svg>
