<svg width="1440" height="1025" viewBox="0 0 1440 1025" fill="none" xmlns="http://www.w3.org/2000/svg">
<mask id="path-1-inside-1_162_399" fill="white">
<path fill-rule="evenodd" clip-rule="evenodd" d="M646.531 0H-88V1025H1479V0H1229.14L1010.52 206.536C970.378 244.464 905.289 244.464 865.144 206.536L646.531 0Z"/>
</mask>
<path fill-rule="evenodd" clip-rule="evenodd" d="M646.531 0H-88V1025H1479V0H1229.14L1010.52 206.536C970.378 244.464 905.289 244.464 865.144 206.536L646.531 0Z" fill="#222831"/>
<path d="M-88 0V-3C-89.6569 -3 -91 -1.65685 -91 0L-88 0ZM646.531 0L648.592 -2.18069C648.035 -2.70686 647.298 -3 646.531 -3V0ZM-88 1025H-91C-91 1026.66 -89.6569 1028 -88 1028V1025ZM1479 1025V1028C1480.66 1028 1482 1026.66 1482 1025H1479ZM1479 0H1482C1482 -1.65685 1480.66 -3 1479 -3V0ZM1229.14 0V-3C1228.37 -3 1227.63 -2.70686 1227.08 -2.18069L1229.14 0ZM1010.52 206.536L1012.58 208.717L1012.58 208.717L1010.52 206.536ZM865.144 206.536L863.083 208.717L863.083 208.717L865.144 206.536ZM-88 3H646.531V-3H-88V3ZM-85 1025V0H-91V1025H-85ZM1479 1022H-88V1028H1479V1022ZM1476 0V1025H1482V0H1476ZM1229.14 3H1479V-3H1229.14V3ZM1227.08 -2.18069L1008.46 204.356L1012.58 208.717L1231.2 2.18069L1227.08 -2.18069ZM1008.46 204.356C969.474 241.191 906.193 241.191 867.204 204.356L863.083 208.717C904.385 247.737 971.282 247.737 1012.58 208.717L1008.46 204.356ZM867.204 204.356L648.592 -2.18069L644.471 2.18069L863.083 208.717L867.204 204.356Z" fill="#00ADB5" mask="url(#path-1-inside-1_162_399)"/>
</svg>
